<svg width="143" height="230" viewBox="0 0 143 230" fill="none" xmlns="http://www.w3.org/2000/svg">
<rect x="133.085" y="217.995" width="9.91463" height="12.0046" fill="#661A28"/>
<path d="M53 0H133.083C138.559 0 142.998 4.47873 142.998 10.0039V219.894C142.998 225.418 138.559 229.898 133.084 229.898L53.001 229.904L53 0Z" fill="#7E0D28"/>
<path d="M53 0H133.083C138.559 0 142.998 4.47873 142.998 10.0039V219.894C142.998 225.418 138.559 229.898 133.084 229.898L53.001 229.904L53 0Z" fill="#7E0D28"/>
<path d="M53 0H133.083C138.559 0 142.998 4.47873 142.998 10.0039V219.894C142.998 225.418 138.559 229.898 133.084 229.898L53.001 229.904L53 0Z" fill="#7E0D28"/>
<path d="M137.157 0.890381C137.72 2.14587 138.04 3.5344 138.04 5.00097V214.891C138.04 220.415 133.601 224.895 128.126 224.895L53 224.901V229.903L133.083 229.897C138.559 229.897 142.997 225.417 142.997 219.893V10.0039C142.998 5.94634 140.599 2.45999 137.157 0.890381Z" fill="#661A28"/>
<path d="M67.9997 0H60.7292V229.901H67.9997V0Z" fill="#661A28"/>
<path d="M87.829 0H80.5586V229.901H87.829V0Z" fill="#661A28"/>
<path d="M107.658 0H100.388V229.901H107.658V0Z" fill="#661A28"/>
<path d="M127.487 0H120.217V229.901H127.487V0Z" fill="#661A28"/>
<path d="M7 6.13383e-05L80 2.46065e-05C80 18.5077 67.4275 0.000117152 80 2.46065e-05V219.986C80 225.512 76.3996 229.994 71.9588 229.994L7.0008 230L7 6.13383e-05Z" fill="#7E0D28"/>
<path d="M7.27041 0H0V229.901H7.27041V0Z" fill="#661A28"/>
<path d="M25.829 0H18.5586V229.901H25.829V0Z" fill="#661A28"/>
<path d="M45.6583 0H38.3879V229.901H45.6583V0Z" fill="#661A28"/>
<path d="M65.4875 0H58.217V229.901H65.4875V0Z" fill="#661A28"/>
<path d="M133.084 0V209.865C133.084 215.39 128.645 219.869 123.169 219.869H97.4355C96.6126 223.288 95.8521 226.638 95.1482 229.873H133.084C138.559 229.873 142.998 225.394 142.998 219.869V10.0039C142.998 4.47873 138.559 0 133.084 0Z" fill="#7E0D28"/>
<path d="M137.157 0.890381C137.72 2.14587 138.04 3.5344 138.04 5.00097V214.866C138.04 220.391 133.601 224.87 128.125 224.87H96.2626C95.8769 226.561 95.5041 228.233 95.1472 229.872H133.083C138.558 229.872 142.997 225.393 142.997 219.868V10.0039C142.998 5.94534 140.599 2.45999 137.157 0.890381Z" fill="#661A28"/>
</svg>
